<svg xmlns="http://www.w3.org/2000/svg" xmlns:xlink="http://www.w3.org/1999/xlink" width="800" zoomAndPan="magnify" viewBox="0 0 600 374.999991" height="500" preserveAspectRatio="xMidYMid meet" version="1.0"><defs><clipPath id="98b036859e"><path d="M 216.253906 239.875 L 600 239.875 L 600 375 L 216.253906 375 Z M 216.253906 239.875 " clip-rule="nonzero"/></clipPath><clipPath id="3c8c2d6d57"><path d="M 0.195312 239.335938 L 242.054688 239.335938 L 242.054688 374.664062 L 0.195312 374.664062 Z M 0.195312 239.335938 " clip-rule="nonzero"/></clipPath><clipPath id="46a0eef6c8"><path d="M 0.195312 271.71875 L 242.054688 271.71875 L 242.054688 374.664062 L 0.195312 374.664062 Z M 0.195312 271.71875 " clip-rule="nonzero"/></clipPath><clipPath id="db47e11dac"><path d="M 0.195312 307.511719 L 113.390625 307.511719 L 113.390625 374.664062 L 0.195312 374.664062 Z M 0.195312 307.511719 " clip-rule="nonzero"/></clipPath><clipPath id="295d5436c5"><path d="M 66 151.164062 L 138 151.164062 L 138 214 L 66 214 Z M 66 151.164062 " clip-rule="nonzero"/></clipPath><clipPath id="2ceb78b087"><path d="M 223 272 L 580 272 L 580 360 L 223 360 Z M 223 272 " clip-rule="nonzero"/></clipPath><clipPath id="c378a06527"><path d="M 228.476562 272.433594 L 579.265625 306.730469 L 574.066406 359.902344 L 223.277344 325.601562 Z M 228.476562 272.433594 " clip-rule="nonzero"/></clipPath><clipPath id="b895d7416f"><path d="M 228.476562 272.433594 L 579.125 306.71875 L 573.925781 359.886719 L 223.277344 325.601562 Z M 228.476562 272.433594 " clip-rule="nonzero"/></clipPath><clipPath id="391e26d1c0"><path d="M 220 267 L 588 267 L 588 321 L 220 321 Z M 220 267 " clip-rule="nonzero"/></clipPath><clipPath id="55de565b9e"><path d="M 222.332031 267.746094 L 587.308594 303.433594 L 585.683594 320.058594 L 220.707031 284.371094 Z M 222.332031 267.746094 " clip-rule="nonzero"/></clipPath><clipPath id="4ec91a3a9b"><path d="M 222.332031 267.746094 L 587.285156 303.429688 L 585.65625 320.054688 L 220.707031 284.371094 Z M 222.332031 267.746094 " clip-rule="nonzero"/></clipPath><clipPath id="b3d9136f3f"><path d="M 208.617188 318.324219 L 582.304688 318.324219 L 582.304688 364.132812 L 208.617188 364.132812 Z M 208.617188 318.324219 " clip-rule="nonzero"/></clipPath><clipPath id="f968c0d761"><path d="M 197 318 L 308 318 L 308 375 L 197 375 Z M 197 318 " clip-rule="nonzero"/></clipPath><clipPath id="ebf5bac652"><path d="M 208.335938 318.453125 L 307.832031 347.234375 L 297.425781 383.210938 L 197.925781 354.429688 Z M 208.335938 318.453125 " clip-rule="nonzero"/></clipPath><clipPath id="85ba7da95b"><path d="M 208.335938 318.453125 L 307.722656 347.199219 L 297.3125 383.179688 L 197.925781 354.429688 Z M 208.335938 318.453125 " clip-rule="nonzero"/></clipPath><clipPath id="c88a6a2d3f"><path d="M 185.425781 318.773438 L 208.617188 318.773438 L 208.617188 357.652344 L 185.425781 357.652344 Z M 185.425781 318.773438 " clip-rule="nonzero"/></clipPath><clipPath id="ac0999857b"><path d="M 208 343 L 315 343 L 315 375 L 208 375 Z M 208 343 " clip-rule="nonzero"/></clipPath><clipPath id="c849e6b481"><path d="M 212.917969 388.972656 L 208.617188 356.996094 L 310.539062 343.296875 L 314.839844 375.273438 Z M 212.917969 388.972656 " clip-rule="nonzero"/></clipPath><clipPath id="3fa6e7c87a"><path d="M 212.917969 388.972656 L 208.617188 356.996094 L 310.445312 343.308594 L 314.746094 375.285156 Z M 212.917969 388.972656 " clip-rule="nonzero"/></clipPath><clipPath id="c26ba24fd1"><path d="M 176 96.585938 L 442.640625 96.585938 L 442.640625 263 L 176 263 Z M 176 96.585938 " clip-rule="nonzero"/></clipPath><clipPath id="66b5770431"><path d="M 157.640625 104 L 424 104 L 424 270.585938 L 157.640625 270.585938 Z M 157.640625 104 " clip-rule="nonzero"/></clipPath></defs><g clip-path="url(#98b036859e)"><path fill="#d0ecdb" d="M 216.253906 239.875 L 640.09375 239.875 L 640.09375 381.15625 L 216.253906 381.15625 Z M 216.253906 239.875 " fill-opacity="1" fill-rule="nonzero"/></g><g clip-path="url(#3c8c2d6d57)"><path fill="#cdeddb" d="M 0.195312 374.660156 L 242.054688 374.660156 L 242.054688 239.722656 L 0.195312 239.722656 Z M 0.195312 374.660156 " fill-opacity="1" fill-rule="nonzero"/></g><path fill="#74847b" d="M 67.136719 293.585938 C 52.675781 293.585938 40.953125 291.835938 40.953125 289.671875 C 40.953125 287.511719 52.675781 285.761719 67.136719 285.761719 C 70.570312 285.761719 73.855469 285.859375 76.859375 286.039062 C 79.789062 286.75 84.203125 287.3125 89.457031 287.625 C 91.910156 288.222656 93.324219 288.921875 93.324219 289.671875 C 93.324219 291.835938 81.597656 293.585938 67.136719 293.585938 " fill-opacity="1" fill-rule="nonzero"/><path fill="#74847b" d="M 99.183594 287.90625 C 95.746094 287.90625 92.464844 287.804688 89.457031 287.625 C 86.527344 286.914062 82.113281 286.355469 76.859375 286.039062 C 74.410156 285.445312 72.996094 284.742188 72.996094 283.992188 C 72.996094 281.832031 84.722656 280.078125 99.183594 280.078125 C 113.640625 280.078125 125.367188 281.832031 125.367188 283.992188 C 125.367188 286.152344 113.640625 287.90625 99.183594 287.90625 " fill-opacity="1" fill-rule="nonzero"/><path fill="#474f4b" d="M 89.457031 287.625 C 84.203125 287.3125 79.789062 286.75 76.859375 286.039062 C 82.113281 286.355469 86.527344 286.914062 89.457031 287.625 " fill-opacity="1" fill-rule="nonzero"/><path fill="#f8a57b" d="M 103.316406 217.839844 C 103.628906 218.421875 103.167969 219.257812 102.222656 220.042969 C 104.644531 220.589844 106.371094 222.113281 106.296875 223.839844 C 106.207031 225.917969 103.554688 227.179688 100.363281 227.027344 C 97.175781 226.886719 94.679688 224.753906 94.777344 222.683594 C 94.875 220.601562 95.925781 219.210938 98.167969 218.226562 C 100.410156 217.234375 102.824219 216.921875 103.316406 217.839844 " fill-opacity="1" fill-rule="nonzero"/><path fill="#4b1615" d="M 103.316406 217.839844 L 102.816406 218.109375 C 102.832031 218.144531 102.84375 218.179688 102.84375 218.238281 C 102.847656 218.34375 102.789062 218.546875 102.625 218.792969 C 102.460938 219.039062 102.199219 219.324219 101.859375 219.605469 L 100.976562 220.34375 L 102.097656 220.597656 C 103.203125 220.847656 104.136719 221.316406 104.773438 221.882812 C 105.40625 222.453125 105.730469 223.089844 105.730469 223.730469 L 105.730469 223.824219 L 106.296875 223.839844 L 105.730469 223.816406 C 105.710938 224.195312 105.589844 224.527344 105.367188 224.839844 C 105.035156 225.308594 104.449219 225.722656 103.664062 226.015625 C 102.886719 226.308594 101.921875 226.472656 100.871094 226.472656 C 100.710938 226.472656 100.550781 226.46875 100.390625 226.460938 C 98.945312 226.398438 97.652344 225.886719 96.746094 225.175781 C 96.292969 224.820312 95.9375 224.421875 95.699219 224.011719 C 95.460938 223.601562 95.339844 223.191406 95.339844 222.796875 L 95.34375 222.71875 L 95.34375 222.710938 C 95.390625 221.757812 95.640625 221.019531 96.121094 220.382812 C 96.601562 219.753906 97.332031 219.210938 98.398438 218.746094 C 99.65625 218.183594 100.992188 217.855469 101.878906 217.859375 C 102.1875 217.859375 102.433594 217.898438 102.589844 217.957031 C 102.75 218.015625 102.792969 218.074219 102.8125 218.109375 L 102.816406 218.109375 L 103.816406 217.570312 C 103.632812 217.226562 103.3125 217.007812 102.980469 216.890625 C 102.644531 216.769531 102.277344 216.726562 101.878906 216.722656 C 100.742188 216.726562 99.316406 217.097656 97.9375 217.707031 L 97.941406 217.703125 C 96.761719 218.222656 95.84375 218.867188 95.214844 219.699219 C 94.582031 220.527344 94.257812 221.527344 94.207031 222.65625 L 94.777344 222.683594 L 94.207031 222.652344 C 94.203125 222.707031 94.203125 222.753906 94.203125 222.796875 C 94.203125 223.421875 94.394531 224.03125 94.714844 224.582031 C 95.199219 225.414062 95.976562 226.128906 96.945312 226.664062 C 97.914062 227.195312 99.078125 227.539062 100.339844 227.597656 C 100.515625 227.605469 100.695312 227.609375 100.871094 227.609375 C 102.429688 227.605469 103.851562 227.289062 104.941406 226.671875 C 105.488281 226.363281 105.953125 225.976562 106.292969 225.503906 C 106.632812 225.03125 106.839844 224.46875 106.867188 223.863281 L 106.867188 223.730469 C 106.867188 222.691406 106.339844 221.753906 105.53125 221.035156 C 104.714844 220.3125 103.613281 219.777344 102.347656 219.488281 L 102.222656 220.042969 L 102.585938 220.480469 C 102.992188 220.144531 103.324219 219.789062 103.570312 219.421875 C 103.8125 219.054688 103.980469 218.667969 103.980469 218.238281 C 103.984375 218.011719 103.929688 217.777344 103.816406 217.570312 L 103.316406 217.839844 " fill-opacity="1" fill-rule="nonzero"/><path fill="#fbc508" d="M 73.375 225.457031 L 63.03125 209.742188 C 61.824219 207.914062 62.335938 205.453125 64.167969 204.25 C 66 203.046875 68.464844 203.554688 69.664062 205.382812 L 79.128906 219.742188 L 96.691406 218.4375 L 96.730469 226.222656 L 77.351562 227.855469 C 75.597656 228.003906 74.035156 226.984375 73.375 225.457031 " fill-opacity="1" fill-rule="nonzero"/><path fill="#4b1615" d="M 73.375 225.457031 L 73.847656 225.148438 L 63.503906 209.433594 C 63.125 208.855469 62.945312 208.210938 62.945312 207.570312 C 62.945312 206.460938 63.484375 205.378906 64.480469 204.722656 C 65.058594 204.347656 65.703125 204.167969 66.34375 204.167969 C 67.453125 204.167969 68.535156 204.703125 69.191406 205.695312 L 78.835938 220.332031 L 96.125 219.046875 L 96.160156 225.703125 L 77.300781 227.289062 C 77.203125 227.296875 77.105469 227.300781 77.011719 227.300781 C 75.636719 227.300781 74.425781 226.457031 73.894531 225.234375 L 73.875 225.1875 L 73.847656 225.148438 L 73.375 225.457031 L 72.851562 225.683594 C 73.554688 227.308594 75.160156 228.4375 77.011719 228.4375 C 77.136719 228.4375 77.269531 228.429688 77.398438 228.421875 L 97.300781 226.746094 L 97.253906 217.824219 L 79.417969 219.152344 L 70.140625 205.070312 C 69.269531 203.75 67.820312 203.03125 66.34375 203.03125 C 65.488281 203.03125 64.621094 203.273438 63.855469 203.773438 C 62.527344 204.644531 61.804688 206.09375 61.804688 207.570312 C 61.804688 208.425781 62.046875 209.289062 62.554688 210.054688 L 72.898438 225.769531 L 73.375 225.457031 L 72.851562 225.683594 L 73.375 225.457031 " fill-opacity="1" fill-rule="nonzero"/><g clip-path="url(#46a0eef6c8)"><path fill="#2f6b65" d="M 139.644531 290.089844 C 134.007812 293.578125 -50.351562 297.558594 -50.351562 297.558594 L 113.3125 307.988281 L -91.730469 332.457031 L -24.003906 345.855469 C -24.003906 345.855469 -80.433594 362.257812 -37.167969 360.210938 C 6.097656 358.15625 23.960938 355.421875 23.960938 355.421875 L 49.359375 410.433594 L 66.285156 355.421875 L 171.640625 395.0625 L 184.484375 360.210938 L 201.722656 373.535156 L 211.140625 350.261719 L 261.925781 360.210938 L 209.246094 318.433594 L 316.472656 322.015625 L 287.078125 290.089844 L 88.738281 271.996094 L 139.644531 290.089844 " fill-opacity="1" fill-rule="nonzero"/></g><g clip-path="url(#db47e11dac)"><path fill="#1c3f3b" d="M 113.3125 307.988281 L 113.3125 373.121094 L 91.714844 364.988281 L 66.285156 355.421875 L 49.359375 410.433594 L 23.960938 355.421875 C 23.960938 355.421875 -47.242188 363.785156 -52.933594 359.21875 C -52.933594 359.21875 -59.753906 357.242188 -24.003906 345.855469 L -91.730469 332.457031 L 113.3125 307.988281 " fill-opacity="1" fill-rule="nonzero"/></g><path fill="#5a231c" d="M 100.460938 210.359375 L 100.460938 276.003906 C 100.460938 276.632812 100.96875 277.140625 101.597656 277.140625 C 102.226562 277.140625 102.738281 276.632812 102.738281 276.003906 L 102.738281 210.359375 C 102.738281 209.730469 102.226562 209.222656 101.597656 209.222656 C 100.96875 209.222656 100.460938 209.730469 100.460938 210.359375 " fill-opacity="1" fill-rule="nonzero"/><path fill="#a0a4a3" d="M 111.101562 280.746094 L 92.097656 280.746094 L 92.097656 276.53125 L 111.101562 276.53125 L 111.101562 280.746094 " fill-opacity="1" fill-rule="nonzero"/><path fill="#5a231c" d="M 111.101562 280.746094 L 111.101562 279.609375 L 93.234375 279.609375 L 93.234375 277.667969 L 109.960938 277.667969 L 109.960938 280.746094 L 111.101562 280.746094 L 111.101562 279.609375 L 111.101562 280.746094 L 112.242188 280.746094 L 112.242188 276.53125 C 112.242188 276.230469 112.117188 275.9375 111.90625 275.726562 C 111.695312 275.515625 111.398438 275.394531 111.101562 275.394531 L 92.097656 275.394531 C 91.796875 275.394531 91.503906 275.515625 91.292969 275.726562 C 91.078125 275.9375 90.957031 276.230469 90.957031 276.53125 L 90.957031 280.746094 C 90.957031 281.042969 91.078125 281.335938 91.292969 281.550781 C 91.503906 281.761719 91.796875 281.882812 92.097656 281.882812 L 111.101562 281.882812 C 111.398438 281.882812 111.695312 281.761719 111.90625 281.550781 C 112.117188 281.335938 112.242188 281.042969 112.242188 280.746094 L 111.101562 280.746094 " fill-opacity="1" fill-rule="nonzero"/><path fill="#a0a4a3" d="M 115.847656 280.746094 L 87.34375 280.746094 L 87.34375 284.964844 L 115.847656 284.964844 L 115.847656 280.746094 " fill-opacity="1" fill-rule="nonzero"/><path fill="#5a231c" d="M 115.847656 280.746094 L 115.847656 279.609375 L 87.34375 279.609375 C 87.046875 279.609375 86.753906 279.730469 86.542969 279.941406 C 86.328125 280.152344 86.207031 280.445312 86.207031 280.746094 L 86.207031 284.964844 C 86.207031 285.265625 86.328125 285.558594 86.542969 285.769531 C 86.753906 285.980469 87.046875 286.101562 87.34375 286.101562 L 115.847656 286.101562 C 116.148438 286.101562 116.441406 285.980469 116.652344 285.769531 C 116.867188 285.554688 116.988281 285.265625 116.988281 284.964844 L 116.988281 280.746094 C 116.988281 280.445312 116.867188 280.152344 116.652344 279.941406 C 116.441406 279.730469 116.148438 279.609375 115.847656 279.609375 L 115.847656 280.746094 L 114.710938 280.746094 L 114.710938 283.828125 L 88.480469 283.828125 L 88.480469 281.882812 L 115.847656 281.882812 L 115.847656 280.746094 L 114.710938 280.746094 L 115.847656 280.746094 " fill-opacity="1" fill-rule="nonzero"/><path fill="#ed0f6a" d="M 84.988281 212.042969 C 84.582031 212.042969 84.207031 211.828125 84.003906 211.476562 L 67.390625 182.738281 C 67.1875 182.390625 67.1875 181.953125 67.390625 181.605469 L 84.003906 152.867188 C 84.207031 152.515625 84.582031 152.296875 84.988281 152.296875 L 118.210938 152.296875 C 118.613281 152.296875 118.992188 152.515625 119.195312 152.867188 L 135.804688 181.605469 C 136.011719 181.953125 136.011719 182.390625 135.804688 182.738281 L 119.195312 211.476562 C 118.992188 211.828125 118.613281 212.042969 118.210938 212.042969 L 84.988281 212.042969 " fill-opacity="1" fill-rule="nonzero"/><g clip-path="url(#295d5436c5)"><path fill="#5a231c" d="M 118.210938 151.164062 L 84.988281 151.164062 C 84.175781 151.164062 83.421875 151.59375 83.015625 152.296875 L 66.40625 181.035156 C 66 181.738281 66 182.605469 66.40625 183.308594 L 83.015625 212.042969 C 83.421875 212.75 84.175781 213.179688 84.988281 213.179688 L 118.210938 213.179688 C 119.023438 213.179688 119.773438 212.75 120.179688 212.042969 L 136.792969 183.308594 C 137.199219 182.605469 137.199219 181.738281 136.792969 181.035156 L 120.179688 152.296875 C 119.773438 151.59375 119.023438 151.164062 118.210938 151.164062 Z M 118.210938 153.433594 L 134.820312 182.171875 L 118.210938 210.910156 L 84.988281 210.910156 L 68.375 182.171875 L 84.988281 153.433594 L 118.210938 153.433594 " fill-opacity="1" fill-rule="nonzero"/></g><path fill="#b20b4c" d="M 118.210938 153.433594 L 112.628906 153.433594 C 117.046875 158.789062 119.726562 165.605469 119.726562 172.957031 C 119.726562 189.820312 105.632812 203.894531 88.753906 203.894531 C 85.804688 203.894531 82.9375 203.460938 80.21875 202.660156 L 84.988281 210.910156 L 118.210938 210.910156 L 134.820312 182.171875 L 118.210938 153.433594 " fill-opacity="1" fill-rule="nonzero"/><path fill="#ed0f6a" d="M 87.640625 207.453125 C 87.230469 207.453125 86.855469 207.238281 86.652344 206.886719 L 72.695312 182.738281 C 72.492188 182.390625 72.492188 181.953125 72.695312 181.605469 L 86.652344 157.457031 C 86.855469 157.109375 87.230469 156.890625 87.640625 156.890625 L 115.558594 156.890625 C 115.964844 156.890625 116.339844 157.109375 116.542969 157.457031 L 130.503906 181.605469 C 130.703125 181.953125 130.703125 182.390625 130.503906 182.738281 L 116.542969 206.886719 C 116.339844 207.238281 115.964844 207.453125 115.558594 207.453125 L 87.640625 207.453125 " fill-opacity="1" fill-rule="nonzero"/><path fill="#5a231c" d="M 115.558594 155.753906 L 87.640625 155.753906 C 86.824219 155.753906 86.074219 156.1875 85.667969 156.890625 L 71.710938 181.035156 C 71.304688 181.738281 71.304688 182.605469 71.710938 183.308594 L 85.667969 207.453125 C 86.074219 208.15625 86.824219 208.589844 87.640625 208.589844 L 115.558594 208.589844 C 116.371094 208.589844 117.121094 208.15625 117.527344 207.453125 L 131.488281 183.308594 C 131.894531 182.605469 131.894531 181.738281 131.488281 181.035156 L 117.527344 156.890625 C 117.121094 156.1875 116.371094 155.753906 115.558594 155.753906 Z M 115.558594 158.027344 L 129.515625 182.171875 L 115.558594 206.316406 L 87.640625 206.316406 L 73.679688 182.171875 L 87.640625 158.027344 L 115.558594 158.027344 " fill-opacity="1" fill-rule="nonzero"/><path fill="#b20b4c" d="M 117.027344 160.800781 C 118.671875 164.546875 119.59375 168.65625 119.59375 172.957031 C 119.59375 189.820312 105.503906 203.894531 88.625 203.894531 C 87.753906 203.894531 86.890625 203.847656 86.035156 203.773438 L 87.511719 206.316406 L 115.421875 206.316406 L 129.386719 182.171875 L 117.027344 160.800781 " fill-opacity="1" fill-rule="nonzero"/><path fill="#ffffff" d="M 90.460938 181.363281 L 90.460938 173.617188 L 87.199219 181.363281 Z M 84.175781 181.363281 L 90.164062 167.222656 L 93.757812 167.222656 L 93.757812 181.363281 L 95.3125 181.363281 L 95.3125 184.351562 L 93.757812 184.351562 L 93.757812 188.148438 L 90.460938 188.148438 L 90.460938 184.351562 L 84.175781 184.351562 L 84.175781 181.363281 " fill-opacity="1" fill-rule="nonzero"/><path fill="#ffffff" d="M 99.832031 183.335938 C 99.832031 184.832031 100.492188 185.402344 101.539062 185.402344 C 102.582031 185.402344 103.242188 184.832031 103.242188 183.335938 L 103.242188 172.035156 C 103.242188 170.535156 102.582031 169.96875 101.539062 169.96875 C 100.492188 169.96875 99.832031 170.535156 99.832031 172.035156 Z M 96.539062 172.242188 C 96.539062 168.894531 98.304688 166.984375 101.539062 166.984375 C 104.773438 166.984375 106.539062 168.894531 106.539062 172.242188 L 106.539062 183.125 C 106.539062 186.476562 104.773438 188.386719 101.539062 188.386719 C 98.304688 188.386719 96.539062 186.476562 96.539062 183.125 L 96.539062 172.242188 " fill-opacity="1" fill-rule="nonzero"/><path fill="#ffffff" d="M 114.167969 181.363281 L 114.167969 173.617188 L 110.90625 181.363281 Z M 107.882812 181.363281 L 113.867188 167.222656 L 117.460938 167.222656 L 117.460938 181.363281 L 119.015625 181.363281 L 119.015625 184.351562 L 117.460938 184.351562 L 117.460938 188.148438 L 114.167969 188.148438 L 114.167969 184.351562 L 107.882812 184.351562 L 107.882812 181.363281 " fill-opacity="1" fill-rule="nonzero"/><path fill="#ffffff" d="M 90.960938 194.277344 L 92.859375 194.277344 L 92.859375 195.535156 L 90.960938 195.535156 L 90.960938 198.109375 L 93.351562 198.109375 L 93.351562 199.367188 L 89.578125 199.367188 L 89.578125 190.570312 L 93.351562 190.570312 L 93.351562 191.832031 L 90.960938 191.832031 L 90.960938 194.277344 " fill-opacity="1" fill-rule="nonzero"/><path fill="#ffffff" d="M 95.597656 191.832031 L 95.597656 194.53125 L 96.132812 194.53125 C 96.652344 194.53125 96.964844 194.300781 96.964844 193.597656 L 96.964844 192.734375 C 96.964844 192.101562 96.75 191.832031 96.261719 191.832031 Z M 97.101562 199.367188 C 97.027344 199.136719 96.976562 199.003906 96.976562 198.289062 L 96.976562 196.902344 C 96.976562 196.089844 96.699219 195.785156 96.070312 195.785156 L 95.597656 195.785156 L 95.597656 199.367188 L 94.210938 199.367188 L 94.210938 190.570312 L 96.296875 190.570312 C 97.734375 190.570312 98.351562 191.238281 98.351562 192.59375 L 98.351562 193.285156 C 98.351562 194.191406 98.058594 194.777344 97.445312 195.070312 C 98.136719 195.363281 98.359375 196.027344 98.359375 196.9375 L 98.359375 198.296875 C 98.359375 198.726562 98.375 199.039062 98.515625 199.367188 L 97.101562 199.367188 " fill-opacity="1" fill-rule="nonzero"/><path fill="#ffffff" d="M 100.65625 191.832031 L 100.65625 194.53125 L 101.195312 194.53125 C 101.710938 194.53125 102.027344 194.300781 102.027344 193.597656 L 102.027344 192.734375 C 102.027344 192.101562 101.808594 191.832031 101.320312 191.832031 Z M 102.160156 199.367188 C 102.089844 199.136719 102.039062 199.003906 102.039062 198.289062 L 102.039062 196.902344 C 102.039062 196.089844 101.757812 195.785156 101.132812 195.785156 L 100.65625 195.785156 L 100.65625 199.367188 L 99.273438 199.367188 L 99.273438 190.570312 L 101.355469 190.570312 C 102.792969 190.570312 103.40625 191.238281 103.40625 192.59375 L 103.40625 193.285156 C 103.40625 194.191406 103.121094 194.777344 102.5 195.070312 C 103.195312 195.363281 103.425781 196.027344 103.425781 196.9375 L 103.425781 198.296875 C 103.425781 198.726562 103.4375 199.039062 103.570312 199.367188 L 102.160156 199.367188 " fill-opacity="1" fill-rule="nonzero"/><path fill="#ffffff" d="M 105.601562 197.34375 C 105.601562 197.976562 105.875 198.210938 106.3125 198.210938 C 106.757812 198.210938 107.035156 197.976562 107.035156 197.34375 L 107.035156 192.59375 C 107.035156 191.964844 106.757812 191.730469 106.3125 191.730469 C 105.875 191.730469 105.601562 191.964844 105.601562 192.59375 Z M 104.214844 192.683594 C 104.214844 191.277344 104.957031 190.46875 106.3125 190.46875 C 107.675781 190.46875 108.421875 191.277344 108.421875 192.683594 L 108.421875 197.253906 C 108.421875 198.664062 107.675781 199.464844 106.3125 199.464844 C 104.957031 199.464844 104.214844 198.664062 104.214844 197.253906 L 104.214844 192.683594 " fill-opacity="1" fill-rule="nonzero"/><path fill="#ffffff" d="M 110.695312 191.832031 L 110.695312 194.53125 L 111.242188 194.53125 C 111.753906 194.53125 112.066406 194.300781 112.066406 193.597656 L 112.066406 192.734375 C 112.066406 192.101562 111.855469 191.832031 111.371094 191.832031 Z M 112.203125 199.367188 C 112.132812 199.136719 112.082031 199.003906 112.082031 198.289062 L 112.082031 196.902344 C 112.082031 196.089844 111.808594 195.785156 111.175781 195.785156 L 110.695312 195.785156 L 110.695312 199.367188 L 109.3125 199.367188 L 109.3125 190.570312 L 111.40625 190.570312 C 112.839844 190.570312 113.457031 191.238281 113.457031 192.59375 L 113.457031 193.285156 C 113.457031 194.191406 113.164062 194.777344 112.546875 195.070312 C 113.242188 195.363281 113.464844 196.027344 113.464844 196.9375 L 113.464844 198.296875 C 113.464844 198.726562 113.476562 199.039062 113.617188 199.367188 L 112.203125 199.367188 " fill-opacity="1" fill-rule="nonzero"/><path fill="#fbc508" d="M 56.839844 238.21875 L 56.839844 203.910156 C 56.839844 200.1875 59.859375 197.164062 63.597656 197.164062 L 71.117188 197.164062 C 74.84375 197.164062 77.871094 200.1875 77.871094 203.910156 L 77.871094 238.21875 L 56.839844 238.21875 " fill-opacity="1" fill-rule="nonzero"/><path fill="#4b1615" d="M 56.839844 238.21875 L 57.410156 238.21875 L 57.410156 203.910156 C 57.410156 202.203125 58.097656 200.664062 59.21875 199.542969 C 60.339844 198.425781 61.882812 197.734375 63.597656 197.734375 L 71.117188 197.734375 C 72.824219 197.734375 74.367188 198.425781 75.488281 199.542969 C 76.609375 200.664062 77.300781 202.203125 77.300781 203.910156 L 77.300781 237.652344 L 56.839844 237.652344 L 56.839844 238.21875 L 57.410156 238.21875 L 56.839844 238.21875 L 56.839844 238.789062 L 78.441406 238.789062 L 78.441406 203.910156 C 78.441406 199.871094 75.15625 196.597656 71.117188 196.597656 L 63.597656 196.597656 C 59.546875 196.597656 56.269531 199.875 56.269531 203.910156 L 56.269531 238.789062 L 56.839844 238.789062 L 56.839844 238.21875 " fill-opacity="1" fill-rule="nonzero"/><path fill="#565353" d="M 69.511719 291.007812 C 69.511719 290.554688 69.519531 287.734375 69.519531 287.425781 C 69.519531 286.949219 69.296875 285.730469 70.894531 285.730469 L 76.472656 285.730469 C 78.890625 285.730469 80.84375 287.695312 80.84375 290.109375 C 80.84375 290.414062 80.816406 290.71875 80.753906 291.007812 L 69.511719 291.007812 " fill-opacity="1" fill-rule="nonzero"/><path fill="#4b1615" d="M 69.511719 291.007812 L 70.082031 291.007812 C 70.082031 290.558594 70.089844 287.734375 70.089844 287.425781 C 70.085938 287.285156 70.078125 287.160156 70.078125 287.03125 C 70.078125 286.796875 70.117188 286.601562 70.191406 286.511719 C 70.226562 286.464844 70.265625 286.425781 70.371094 286.382812 C 70.46875 286.339844 70.636719 286.300781 70.894531 286.300781 L 76.472656 286.300781 C 77.523438 286.300781 78.472656 286.726562 79.160156 287.417969 C 79.851562 288.105469 80.273438 289.058594 80.273438 290.109375 C 80.273438 290.378906 80.25 290.644531 80.199219 290.886719 L 80.753906 291.007812 L 80.753906 290.441406 L 69.511719 290.441406 L 69.511719 291.007812 L 70.082031 291.007812 L 69.511719 291.007812 L 69.511719 291.578125 L 81.207031 291.578125 L 81.304688 291.136719 C 81.382812 290.792969 81.414062 290.445312 81.414062 290.109375 C 81.414062 287.382812 79.203125 285.164062 76.472656 285.164062 L 70.894531 285.164062 C 70.523438 285.164062 70.207031 285.21875 69.933594 285.332031 C 69.515625 285.5 69.226562 285.828125 69.09375 286.15625 C 68.957031 286.480469 68.941406 286.789062 68.941406 287.03125 C 68.941406 287.207031 68.953125 287.359375 68.953125 287.425781 C 68.953125 287.730469 68.941406 290.550781 68.941406 291.007812 L 68.941406 291.578125 L 69.511719 291.578125 L 69.511719 291.007812 " fill-opacity="1" fill-rule="nonzero"/><path fill="#0f85d1" d="M 61.230469 197.597656 L 61.230469 206.046875 L 73.378906 206.046875 L 73.378906 197.5625 C 75.996094 198.496094 77.871094 200.984375 77.871094 203.910156 L 77.851562 285.789062 L 69.949219 285.789062 L 69.949219 245.277344 L 64.777344 245.277344 L 64.777344 285.789062 L 56.875 285.789062 L 56.839844 203.910156 C 56.839844 201.015625 58.667969 198.5625 61.230469 197.597656 " fill-opacity="1" fill-rule="nonzero"/><path fill="#4b1615" d="M 61.230469 197.597656 L 60.660156 197.597656 L 60.660156 206.613281 L 73.945312 206.613281 L 73.945312 197.5625 L 73.378906 197.5625 L 73.1875 198.097656 C 75.585938 198.953125 77.300781 201.234375 77.300781 203.910156 L 77.285156 285.222656 L 70.519531 285.222656 L 70.519531 244.707031 L 64.207031 244.707031 L 64.207031 285.222656 L 57.441406 285.222656 L 57.40625 203.910156 C 57.40625 201.261719 59.078125 199.011719 61.429688 198.128906 L 61.230469 197.597656 L 60.660156 197.597656 L 61.230469 197.597656 L 61.027344 197.066406 C 58.253906 198.109375 56.269531 200.769531 56.269531 203.910156 L 56.308594 286.359375 L 65.347656 286.359375 L 65.347656 245.84375 L 69.382812 245.84375 L 69.382812 286.359375 L 78.421875 286.359375 L 78.441406 203.910156 C 78.441406 200.738281 76.40625 198.035156 73.570312 197.027344 L 72.808594 196.757812 L 72.808594 205.476562 L 61.796875 205.476562 L 61.796875 196.777344 L 61.027344 197.066406 L 61.230469 197.597656 " fill-opacity="1" fill-rule="nonzero"/><path fill="#565353" d="M 55.679688 291.007812 C 55.679688 290.554688 55.691406 287.734375 55.691406 287.425781 C 55.691406 286.949219 55.46875 285.730469 57.058594 285.730469 L 62.636719 285.730469 C 65.058594 285.730469 67.015625 287.695312 67.015625 290.109375 C 67.015625 290.414062 66.980469 290.71875 66.921875 291.007812 L 55.679688 291.007812 " fill-opacity="1" fill-rule="nonzero"/><path fill="#4b1615" d="M 55.679688 291.007812 L 56.246094 291.007812 C 56.246094 290.558594 56.257812 287.734375 56.257812 287.425781 C 56.257812 287.285156 56.246094 287.160156 56.25 287.03125 C 56.246094 286.796875 56.289062 286.601562 56.359375 286.511719 C 56.394531 286.464844 56.4375 286.425781 56.539062 286.382812 C 56.636719 286.339844 56.804688 286.300781 57.058594 286.300781 L 62.636719 286.300781 C 63.691406 286.300781 64.640625 286.726562 65.332031 287.417969 C 66.019531 288.109375 66.445312 289.058594 66.449219 290.109375 C 66.449219 290.367188 66.417969 290.640625 66.367188 290.902344 L 66.921875 291.007812 L 66.921875 290.441406 L 55.679688 290.441406 L 55.679688 291.007812 L 56.246094 291.007812 L 55.679688 291.007812 L 55.679688 291.578125 L 67.390625 291.578125 L 67.480469 291.117188 C 67.542969 290.796875 67.582031 290.457031 67.582031 290.109375 C 67.582031 287.382812 65.371094 285.164062 62.636719 285.164062 L 57.058594 285.164062 C 56.695312 285.164062 56.375 285.21875 56.101562 285.332031 C 55.683594 285.5 55.394531 285.832031 55.265625 286.15625 C 55.128906 286.480469 55.113281 286.789062 55.113281 287.03125 C 55.113281 287.207031 55.121094 287.359375 55.121094 287.425781 C 55.121094 287.730469 55.109375 290.550781 55.109375 291.007812 L 55.109375 291.578125 L 55.679688 291.578125 L 55.679688 291.007812 " fill-opacity="1" fill-rule="nonzero"/><path fill="#42c2f3" d="M 62.511719 217.988281 L 73.179688 217.988281 L 73.179688 210.390625 L 62.511719 210.390625 L 62.511719 217.988281 " fill-opacity="1" fill-rule="nonzero"/><path fill="#4b1615" d="M 62.511719 217.988281 L 62.511719 218.558594 L 73.75 218.558594 L 73.75 209.824219 L 61.941406 209.824219 L 61.941406 218.558594 L 62.511719 218.558594 L 62.511719 217.988281 L 63.082031 217.988281 L 63.082031 210.960938 L 72.613281 210.960938 L 72.613281 217.421875 L 62.511719 217.421875 L 62.511719 217.988281 L 63.082031 217.988281 L 62.511719 217.988281 " fill-opacity="1" fill-rule="nonzero"/><path fill="#f89b70" d="M 63.582031 198.226562 C 63.582031 200.453125 65.394531 202.25 67.617188 202.25 C 69.839844 202.25 71.640625 200.453125 71.640625 198.226562 L 71.640625 190.019531 C 71.640625 187.789062 69.839844 185.988281 67.617188 185.988281 C 65.394531 185.988281 63.582031 187.789062 63.582031 190.019531 L 63.582031 198.226562 " fill-opacity="1" fill-rule="nonzero"/><path fill="#4b1615" d="M 63.582031 198.226562 L 63.011719 198.226562 C 63.011719 200.769531 65.082031 202.816406 67.617188 202.816406 C 68.886719 202.820312 70.035156 202.304688 70.867188 201.472656 C 71.695312 200.648438 72.210938 199.492188 72.210938 198.226562 L 72.210938 190.019531 C 72.210938 187.480469 70.152344 185.421875 67.617188 185.421875 C 65.078125 185.421875 63.011719 187.476562 63.011719 190.019531 L 63.011719 198.226562 L 64.152344 198.226562 L 64.152344 190.019531 C 64.152344 189.058594 64.539062 188.199219 65.167969 187.570312 C 65.796875 186.941406 66.660156 186.558594 67.617188 186.558594 C 68.574219 186.558594 69.433594 186.941406 70.058594 187.570312 C 70.683594 188.195312 71.070312 189.058594 71.070312 190.019531 L 71.070312 198.226562 C 71.070312 200.140625 69.527344 201.679688 67.617188 201.679688 C 66.660156 201.679688 65.796875 201.296875 65.167969 200.671875 C 64.539062 200.042969 64.152344 199.183594 64.152344 198.226562 L 63.582031 198.226562 " fill-opacity="1" fill-rule="nonzero"/><path fill="#f8a57b" d="M 55.328125 177.121094 C 53.707031 185.640625 59.300781 193.855469 67.84375 195.472656 C 76.375 197.089844 84.597656 191.496094 86.214844 182.972656 L 87.683594 175.257812 C 89.304688 166.734375 83.699219 158.519531 75.167969 156.898438 C 66.632812 155.289062 58.410156 160.882812 56.792969 169.40625 L 55.328125 177.121094 " fill-opacity="1" fill-rule="nonzero"/><path fill="#4b1615" d="M 55.328125 177.121094 L 54.765625 177.015625 C 54.570312 178.042969 54.476562 179.066406 54.476562 180.074219 C 54.476562 187.734375 59.914062 194.546875 67.738281 196.03125 C 68.765625 196.222656 69.785156 196.320312 70.792969 196.320312 C 78.464844 196.320312 85.292969 190.882812 86.777344 183.078125 L 88.242188 175.359375 C 88.4375 174.335938 88.53125 173.316406 88.53125 172.308594 C 88.53125 164.644531 83.085938 157.828125 75.273438 156.339844 C 74.25 156.148438 73.230469 156.054688 72.226562 156.054688 C 64.546875 156.054688 57.71875 161.492188 56.230469 169.300781 L 54.765625 177.015625 L 55.328125 177.121094 L 55.886719 177.230469 L 57.347656 169.511719 C 58.730469 162.246094 65.085938 157.191406 72.226562 157.191406 C 73.160156 157.191406 74.105469 157.277344 75.058594 157.457031 C 82.328125 158.839844 87.390625 165.1875 87.390625 172.308594 C 87.390625 173.246094 87.304688 174.195312 87.125 175.148438 L 85.660156 182.867188 C 84.277344 190.128906 77.925781 195.183594 70.792969 195.183594 C 69.855469 195.183594 68.90625 195.097656 67.953125 194.914062 C 60.671875 193.539062 55.617188 187.195312 55.617188 180.074219 C 55.617188 179.136719 55.703125 178.183594 55.886719 177.230469 L 55.328125 177.121094 " fill-opacity="1" fill-rule="nonzero"/><path fill="#7e101b" d="M 82.878906 171.34375 C 82.878906 171.34375 76.835938 177.4375 63.769531 174.957031 C 60.199219 174.285156 59.148438 177.082031 58.394531 181.042969 C 58.265625 181.746094 57.765625 182.820312 56.550781 182.589844 L 55.222656 182.34375 C 54.96875 180.644531 54.984375 178.890625 55.328125 177.121094 L 56.792969 169.40625 C 58.410156 160.882812 66.632812 155.289062 75.167969 156.898438 C 83.699219 158.519531 89.304688 166.734375 87.683594 175.257812 L 87.042969 178.628906 C 87.042969 178.628906 81.679688 177.644531 82.878906 171.34375 " fill-opacity="1" fill-rule="nonzero"/><path fill="#4b1615" d="M 82.878906 171.34375 L 82.472656 170.941406 L 82.496094 170.964844 L 82.472656 170.941406 L 82.496094 170.964844 L 82.472656 170.941406 C 82.410156 171 78.382812 174.980469 69.796875 174.980469 C 68.019531 174.980469 66.050781 174.808594 63.875 174.398438 C 63.484375 174.324219 63.121094 174.289062 62.769531 174.289062 C 61.984375 174.285156 61.289062 174.476562 60.707031 174.839844 C 59.835938 175.378906 59.25 176.257812 58.816406 177.300781 C 58.386719 178.347656 58.09375 179.585938 57.839844 180.9375 C 57.792969 181.1875 57.671875 181.511719 57.507812 181.726562 C 57.425781 181.832031 57.332031 181.914062 57.234375 181.96875 C 57.136719 182.019531 57.027344 182.054688 56.875 182.054688 C 56.8125 182.054688 56.738281 182.046875 56.65625 182.03125 L 55.328125 181.785156 L 55.222656 182.34375 L 55.785156 182.257812 C 55.675781 181.519531 55.617188 180.773438 55.617188 180.019531 C 55.617188 179.097656 55.703125 178.164062 55.886719 177.230469 L 57.347656 169.511719 C 58.730469 162.246094 65.085938 157.191406 72.226562 157.191406 C 73.160156 157.191406 74.105469 157.277344 75.058594 157.457031 C 82.328125 158.839844 87.390625 165.1875 87.390625 172.308594 C 87.390625 173.246094 87.304688 174.195312 87.125 175.148438 L 86.484375 178.527344 L 87.042969 178.628906 L 87.144531 178.070312 L 87.113281 178.25 L 87.148438 178.070312 L 87.144531 178.070312 L 87.113281 178.25 L 87.148438 178.070312 C 87.132812 178.070312 86.121094 177.867188 85.164062 177.144531 C 84.679688 176.785156 84.214844 176.304688 83.863281 175.648438 C 83.511719 174.996094 83.273438 174.167969 83.269531 173.082031 C 83.269531 172.589844 83.320312 172.046875 83.433594 171.449219 C 83.480469 171.203125 83.363281 170.957031 83.140625 170.839844 C 82.917969 170.722656 82.648438 170.761719 82.472656 170.941406 L 82.878906 171.34375 L 82.316406 171.234375 C 82.191406 171.898438 82.132812 172.515625 82.132812 173.082031 C 82.132812 174.355469 82.429688 175.402344 82.882812 176.226562 C 83.5625 177.46875 84.578125 178.207031 85.410156 178.632812 C 86.242188 179.058594 86.902344 179.183594 86.941406 179.1875 C 87.246094 179.246094 87.542969 179.042969 87.601562 178.734375 L 88.242188 175.359375 C 88.4375 174.335938 88.53125 173.316406 88.53125 172.308594 C 88.53125 164.644531 83.085938 157.828125 75.273438 156.339844 C 74.25 156.148438 73.230469 156.054688 72.226562 156.054688 C 64.546875 156.054688 57.71875 161.492188 56.230469 169.300781 L 54.765625 177.015625 C 54.570312 178.023438 54.480469 179.027344 54.480469 180.019531 C 54.480469 180.832031 54.542969 181.632812 54.660156 182.425781 C 54.695312 182.664062 54.878906 182.855469 55.117188 182.898438 L 56.445312 183.148438 L 56.441406 183.148438 C 56.589844 183.175781 56.734375 183.191406 56.875 183.191406 C 57.210938 183.191406 57.523438 183.105469 57.785156 182.964844 C 58.175781 182.746094 58.441406 182.421875 58.621094 182.097656 C 58.796875 181.769531 58.898438 181.4375 58.957031 181.148438 C 59.285156 179.386719 59.6875 177.890625 60.28125 176.90625 C 60.578125 176.410156 60.914062 176.046875 61.308594 175.804688 C 61.703125 175.5625 62.164062 175.425781 62.769531 175.425781 C 63.039062 175.425781 63.335938 175.453125 63.664062 175.515625 C 65.902344 175.941406 67.949219 176.117188 69.796875 176.117188 C 78.894531 176.121094 83.21875 171.808594 83.28125 171.742188 L 82.878906 171.34375 L 82.316406 171.234375 L 82.878906 171.34375 " fill-opacity="1" fill-rule="nonzero"/><path fill="#4b1615" d="M 78.878906 183.109375 C 78.707031 184.019531 79.3125 184.910156 80.226562 185.082031 C 81.140625 185.253906 82.027344 184.652344 82.199219 183.738281 C 82.375 182.820312 81.769531 181.933594 80.855469 181.761719 C 79.941406 181.589844 79.054688 182.191406 78.878906 183.109375 " fill-opacity="1" fill-rule="nonzero"/><path fill="#4b1615" d="M 65.6875 180.605469 C 65.507812 181.519531 66.113281 182.410156 67.035156 182.578125 C 67.949219 182.753906 68.835938 182.144531 69.007812 181.238281 C 69.179688 180.320312 68.582031 179.433594 67.664062 179.265625 C 66.746094 179.09375 65.851562 179.695312 65.6875 180.605469 " fill-opacity="1" fill-rule="nonzero"/><path fill="#4b1615" d="M 72.113281 186.488281 L 74.136719 186.875 C 74.273438 186.902344 74.40625 186.871094 74.503906 186.785156 C 74.605469 186.691406 74.652344 186.566406 74.644531 186.433594 L 74.414062 182.832031 C 74.394531 182.589844 74.199219 182.417969 73.960938 182.4375 C 73.730469 182.449219 73.550781 182.652344 73.558594 182.886719 L 73.765625 185.941406 L 72.269531 185.660156 C 72.039062 185.613281 71.8125 185.769531 71.769531 185.996094 C 71.726562 186.222656 71.878906 186.449219 72.113281 186.488281 " fill-opacity="1" fill-rule="nonzero"/><path fill="#4b1615" d="M 72.984375 190.589844 C 72.984375 191.378906 72.347656 192.015625 71.558594 192.015625 C 70.769531 192.015625 70.128906 191.378906 70.128906 190.589844 C 70.128906 189.800781 70.769531 189.164062 71.558594 189.164062 C 72.347656 189.164062 72.984375 189.800781 72.984375 190.589844 " fill-opacity="1" fill-rule="nonzero"/><path fill="#fbc508" d="M 55.449219 172.496094 L 56.011719 169.570312 C 57.703125 160.640625 66.308594 154.785156 75.246094 156.464844 C 84.179688 158.164062 90.046875 166.769531 88.355469 175.695312 L 87.796875 178.621094 L 55.449219 172.496094 " fill-opacity="1" fill-rule="nonzero"/><path fill="#4b1615" d="M 55.449219 172.496094 L 56.007812 172.601562 L 56.570312 169.675781 C 58.011719 162.050781 64.679688 156.75 72.171875 156.746094 C 73.148438 156.746094 74.144531 156.835938 75.140625 157.027344 C 82.769531 158.472656 88.078125 165.140625 88.078125 172.617188 C 88.078125 173.597656 87.984375 174.589844 87.796875 175.589844 L 87.34375 177.957031 L 55.554688 171.9375 L 55.449219 172.496094 L 56.007812 172.601562 L 55.449219 172.496094 L 55.34375 173.054688 L 88.25 179.285156 L 88.914062 175.800781 C 89.117188 174.734375 89.214844 173.667969 89.214844 172.617188 C 89.214844 164.601562 83.527344 157.460938 75.355469 155.910156 C 74.28125 155.707031 73.21875 155.609375 72.171875 155.609375 C 64.140625 155.609375 57 161.292969 55.453125 169.464844 L 55.453125 169.460938 L 54.78125 172.949219 L 55.34375 173.054688 L 55.449219 172.496094 " fill-opacity="1" fill-rule="nonzero"/><path fill="#fbc508" d="M 55.082031 174.441406 L 91.050781 181.253906 L 91.402344 179.363281 L 55.441406 172.550781 L 55.082031 174.441406 " fill-opacity="1" fill-rule="nonzero"/><path fill="#4b1615" d="M 55.082031 174.441406 L 54.976562 175 L 91.503906 181.917969 L 92.066406 178.910156 L 54.988281 171.886719 L 54.417969 174.894531 L 54.976562 175 L 55.082031 174.441406 L 55.640625 174.546875 L 55.894531 173.214844 L 90.738281 179.816406 L 90.59375 180.589844 L 55.1875 173.882812 L 55.082031 174.441406 L 55.640625 174.546875 L 55.082031 174.441406 " fill-opacity="1" fill-rule="nonzero"/><path fill="#fbc508" d="M 83.625 160.75 L 82.949219 164.324219 " fill-opacity="1" fill-rule="nonzero"/><path fill="#4b1615" d="M 83.066406 160.644531 L 82.394531 164.214844 L 83.511719 164.425781 L 84.1875 160.855469 " fill-opacity="1" fill-rule="nonzero"/><path fill="#fbc508" d="M 81.097656 159.03125 L 79.554688 167.160156 " fill-opacity="1" fill-rule="nonzero"/><path fill="#4b1615" d="M 80.542969 158.925781 L 78.992188 167.054688 L 80.109375 167.265625 L 81.660156 159.136719 " fill-opacity="1" fill-rule="nonzero"/><path fill="#fbc508" d="M 78.542969 157.453125 L 76.617188 167.589844 " fill-opacity="1" fill-rule="nonzero"/><path fill="#4b1615" d="M 77.988281 157.347656 L 76.054688 167.484375 L 77.171875 167.699219 L 79.101562 157.558594 " fill-opacity="1" fill-rule="nonzero"/><path fill="#fbc508" d="M 66.703125 157.546875 L 66.027344 161.105469 " fill-opacity="1" fill-rule="nonzero"/><path fill="#4b1615" d="M 66.144531 157.441406 L 65.46875 161 L 66.589844 161.210938 L 67.261719 157.652344 " fill-opacity="1" fill-rule="nonzero"/><path fill="#fbc508" d="M 69.835938 156.132812 L 68.148438 165 " fill-opacity="1" fill-rule="nonzero"/><path fill="#4b1615" d="M 69.277344 156.023438 L 67.589844 164.894531 L 68.707031 165.109375 L 70.394531 156.238281 " fill-opacity="1" fill-rule="nonzero"/><path fill="#fbc508" d="M 72.648438 156.335938 L 70.726562 166.480469 " fill-opacity="1" fill-rule="nonzero"/><path fill="#4b1615" d="M 72.089844 156.230469 L 70.164062 166.375 L 71.285156 166.589844 L 73.207031 156.441406 " fill-opacity="1" fill-rule="nonzero"/><path fill="#fbc508" d="M 75.605469 156.832031 L 73.046875 170.3125 " fill-opacity="1" fill-rule="nonzero"/><path fill="#4b1615" d="M 75.046875 156.726562 L 72.488281 170.207031 L 73.605469 170.417969 L 76.164062 156.9375 " fill-opacity="1" fill-rule="nonzero"/><path fill="#f8a57b" d="M 94.019531 213.289062 C 94.363281 213.859375 93.941406 214.710938 93.023438 215.539062 C 95.46875 215.976562 97.265625 217.417969 97.265625 219.152344 C 97.265625 221.234375 94.679688 222.597656 91.484375 222.597656 C 88.292969 222.597656 85.707031 220.589844 85.707031 218.507812 C 85.707031 216.417969 86.699219 214.988281 88.894531 213.90625 C 91.09375 212.8125 93.488281 212.394531 94.019531 213.289062 " fill-opacity="1" fill-rule="nonzero"/><path fill="#4b1615" d="M 94.019531 213.289062 L 93.53125 213.582031 C 93.554688 213.621094 93.566406 213.664062 93.570312 213.734375 C 93.570312 213.847656 93.515625 214.046875 93.359375 214.296875 C 93.207031 214.542969 92.964844 214.828125 92.644531 215.117188 L 91.785156 215.894531 L 92.925781 216.097656 C 94.066406 216.300781 95.039062 216.742188 95.695312 217.296875 C 96.359375 217.855469 96.695312 218.492188 96.699219 219.152344 C 96.695312 219.554688 96.578125 219.90625 96.34375 220.246094 C 95.996094 220.75 95.363281 221.207031 94.511719 221.523438 C 93.667969 221.847656 92.617188 222.03125 91.484375 222.03125 C 90.007812 222.03125 88.675781 221.5625 87.734375 220.878906 C 87.261719 220.535156 86.894531 220.136719 86.648438 219.730469 C 86.402344 219.324219 86.277344 218.910156 86.277344 218.507812 C 86.277344 217.554688 86.496094 216.808594 86.945312 216.15625 C 87.398438 215.503906 88.109375 214.929688 89.148438 214.414062 C 89.808594 214.085938 90.484375 213.824219 91.109375 213.644531 C 91.734375 213.460938 92.308594 213.371094 92.746094 213.371094 C 93.003906 213.371094 93.214844 213.40625 93.339844 213.453125 C 93.472656 213.503906 93.511719 213.546875 93.527344 213.578125 L 93.53125 213.582031 L 94.019531 213.289062 L 94.507812 213 C 94.328125 212.691406 94.035156 212.496094 93.734375 212.386719 C 93.425781 212.277344 93.097656 212.234375 92.746094 212.234375 C 92.15625 212.234375 91.496094 212.351562 90.792969 212.554688 C 90.097656 212.753906 89.359375 213.042969 88.644531 213.394531 C 87.488281 213.964844 86.605469 214.648438 86.011719 215.507812 C 85.414062 216.363281 85.136719 217.378906 85.140625 218.507812 C 85.140625 219.148438 85.339844 219.769531 85.675781 220.320312 C 86.183594 221.15625 86.996094 221.859375 87.996094 222.363281 C 89 222.867188 90.195312 223.167969 91.484375 223.167969 C 93.160156 223.164062 94.695312 222.816406 95.855469 222.148438 C 96.433594 221.8125 96.925781 221.398438 97.277344 220.894531 C 97.632812 220.390625 97.835938 219.792969 97.835938 219.152344 C 97.835938 218.082031 97.277344 217.128906 96.429688 216.425781 C 95.578125 215.714844 94.429688 215.214844 93.128906 214.980469 L 93.023438 215.539062 L 93.40625 215.960938 C 93.785156 215.617188 94.101562 215.261719 94.328125 214.894531 C 94.554688 214.53125 94.703125 214.144531 94.707031 213.734375 C 94.707031 213.484375 94.640625 213.222656 94.503906 212.996094 L 94.507812 213 L 94.019531 213.289062 " fill-opacity="1" fill-rule="nonzero"/><path fill="#fbc508" d="M 63.660156 222.316406 L 52.621094 207.085938 C 51.335938 205.3125 51.730469 202.835938 53.511719 201.546875 C 55.289062 200.261719 57.765625 200.65625 59.054688 202.429688 L 69.144531 216.359375 L 86.636719 214.265625 L 87.027344 222.042969 L 67.738281 224.535156 C 65.996094 224.761719 64.382812 223.816406 63.660156 222.316406 " fill-opacity="1" fill-rule="nonzero"/><path fill="#4b1615" d="M 63.660156 222.316406 L 64.125 221.984375 L 53.082031 206.75 C 52.644531 206.152344 52.4375 205.457031 52.4375 204.765625 C 52.4375 203.710938 52.921875 202.675781 53.84375 202.007812 C 54.453125 201.566406 55.144531 201.359375 55.839844 201.359375 C 56.890625 201.359375 57.925781 201.84375 58.59375 202.765625 L 58.59375 202.761719 L 68.882812 216.960938 L 86.097656 214.902344 L 86.433594 221.546875 L 67.664062 223.972656 C 67.515625 223.992188 67.371094 224.003906 67.226562 224.003906 C 65.90625 224.003906 64.734375 223.230469 64.175781 222.070312 L 64.152344 222.023438 L 64.125 221.984375 L 63.660156 222.316406 L 63.152344 222.5625 C 63.890625 224.105469 65.460938 225.136719 67.226562 225.136719 C 67.417969 225.136719 67.613281 225.125 67.8125 225.101562 L 87.621094 222.539062 L 87.175781 213.628906 L 69.410156 215.753906 L 59.519531 202.097656 L 59.515625 202.097656 C 58.625 200.875 57.238281 200.222656 55.839844 200.222656 C 54.917969 200.222656 53.980469 200.503906 53.175781 201.089844 C 51.949219 201.972656 51.296875 203.363281 51.296875 204.765625 C 51.296875 205.683594 51.578125 206.617188 52.160156 207.417969 L 63.203125 222.652344 L 63.660156 222.316406 L 63.152344 222.5625 L 63.660156 222.316406 " fill-opacity="1" fill-rule="nonzero"/><g clip-path="url(#2ceb78b087)"><g clip-path="url(#c378a06527)"><g clip-path="url(#b895d7416f)"><path fill="#376964" d="M 228.476562 272.433594 L 579.058594 306.710938 L 573.859375 359.878906 L 223.277344 325.601562 Z M 228.476562 272.433594 " fill-opacity="1" fill-rule="nonzero"/></g></g></g><g clip-path="url(#391e26d1c0)"><g clip-path="url(#55de565b9e)"><g clip-path="url(#4ec91a3a9b)"><path fill="#d2ebdb" d="M 222.332031 267.746094 L 587.308594 303.433594 L 585.683594 320.058594 L 220.707031 284.371094 Z M 222.332031 267.746094 " fill-opacity="1" fill-rule="nonzero"/></g></g></g><g clip-path="url(#b3d9136f3f)"><path fill="#d2ebdb" d="M 208.617188 318.324219 L 582.21875 318.324219 L 582.21875 364.132812 L 208.617188 364.132812 Z M 208.617188 318.324219 " fill-opacity="1" fill-rule="nonzero"/></g><g clip-path="url(#f968c0d761)"><g clip-path="url(#ebf5bac652)"><g clip-path="url(#85ba7da95b)"><path fill="#213d3a" d="M 208.335938 318.453125 L 307.691406 347.191406 L 297.285156 383.167969 L 197.925781 354.429688 Z M 208.335938 318.453125 " fill-opacity="1" fill-rule="nonzero"/></g></g></g><g clip-path="url(#c88a6a2d3f)"><path fill="#376964" d="M 185.425781 318.773438 L 208.617188 318.773438 L 208.617188 357.632812 L 185.425781 357.632812 Z M 185.425781 318.773438 " fill-opacity="1" fill-rule="nonzero"/></g><g clip-path="url(#ac0999857b)"><g clip-path="url(#c849e6b481)"><g clip-path="url(#3fa6e7c87a)"><path fill="#d4eadb" d="M 212.917969 388.972656 L 208.617188 356.996094 L 310.414062 343.3125 L 314.714844 375.289062 Z M 212.917969 388.972656 " fill-opacity="1" fill-rule="nonzero"/></g></g></g><g clip-path="url(#c26ba24fd1)"><path fill="#182024" d="M 177.71875 262.660156 L 441.351562 262.660156 C 441.609375 262.660156 441.828125 262.570312 442.011719 262.390625 C 442.195312 262.207031 442.285156 261.988281 442.285156 261.730469 L 442.285156 97.519531 C 442.285156 97.261719 442.195312 97.042969 442.011719 96.859375 C 441.828125 96.679688 441.609375 96.585938 441.351562 96.585938 L 177.71875 96.585938 C 177.460938 96.585938 177.242188 96.679688 177.058594 96.859375 C 176.875 97.042969 176.785156 97.261719 176.785156 97.519531 L 176.785156 261.730469 C 176.785156 261.988281 176.875 262.207031 177.058594 262.390625 C 177.242188 262.570312 177.460938 262.660156 177.71875 262.660156 Z M 177.71875 262.660156 " fill-opacity="1" fill-rule="nonzero"/></g><path fill="#f1ebbb" d="M 158.90625 139.628906 L 422.542969 139.628906 L 422.542969 269.6875 L 158.90625 269.6875 Z M 158.90625 139.628906 " fill-opacity="1" fill-rule="nonzero"/><path fill="#53364b" d="M 158.90625 105.476562 L 422.542969 105.476562 L 422.542969 139.628906 L 158.90625 139.628906 Z M 158.90625 105.476562 " fill-opacity="1" fill-rule="nonzero"/><g clip-path="url(#66b5770431)"><path fill="#182024" d="M 422.542969 104.542969 L 158.90625 104.542969 C 158.648438 104.542969 158.429688 104.632812 158.246094 104.816406 C 158.066406 105 157.976562 105.21875 157.976562 105.476562 L 157.976562 269.6875 C 157.976562 269.945312 158.066406 270.164062 158.246094 270.34375 C 158.429688 270.527344 158.648438 270.617188 158.90625 270.617188 L 422.542969 270.617188 C 422.800781 270.617188 423.019531 270.527344 423.203125 270.34375 C 423.382812 270.164062 423.472656 269.945312 423.472656 269.6875 L 423.472656 105.476562 C 423.472656 105.21875 423.382812 105 423.203125 104.816406 C 423.019531 104.632812 422.800781 104.542969 422.542969 104.542969 Z M 159.839844 106.40625 L 421.613281 106.40625 L 421.613281 138.699219 L 159.839844 138.699219 Z M 421.613281 268.753906 L 159.839844 268.753906 L 159.839844 140.558594 L 421.613281 140.558594 Z M 421.613281 268.753906 " fill-opacity="1" fill-rule="nonzero"/></g><path fill="#f1ebbb" d="M 392.941406 115.917969 L 382.980469 115.917969 L 382.980469 127.527344 L 394.601562 127.527344 L 394.601562 115.917969 Z M 392.941406 125.867188 L 384.636719 125.867188 L 384.636719 117.574219 L 392.941406 117.574219 Z M 392.941406 125.867188 " fill-opacity="1" fill-rule="nonzero"/><path fill="#f1ebbb" d="M 365.714844 125.867188 L 377.335938 125.867188 L 377.335938 127.527344 L 365.714844 127.527344 Z M 365.714844 125.867188 " fill-opacity="1" fill-rule="nonzero"/><path fill="#f1ebbb" d="M 399.429688 127.527344 L 399.429688 124.210938 L 401.089844 124.210938 L 401.089844 122.550781 L 402.75 122.550781 L 402.75 120.894531 L 401.089844 120.894531 L 401.089844 119.234375 L 399.429688 119.234375 L 399.429688 115.917969 L 402.75 115.917969 L 402.75 119.234375 L 404.410156 119.234375 L 404.410156 120.894531 L 406.070312 120.894531 L 406.070312 119.234375 L 407.730469 119.234375 L 407.730469 115.917969 L 411.050781 115.917969 L 411.050781 119.234375 L 409.390625 119.234375 L 409.390625 120.894531 L 407.730469 120.894531 L 407.730469 122.550781 L 409.390625 122.550781 L 409.390625 124.210938 L 411.050781 124.210938 L 411.050781 127.527344 L 407.730469 127.527344 L 407.730469 124.210938 L 406.070312 124.210938 L 406.070312 122.550781 L 404.410156 122.550781 L 404.410156 124.210938 L 402.75 124.210938 L 402.75 127.527344 Z M 399.429688 127.527344 " fill-opacity="1" fill-rule="nonzero"/><path fill="#53364b" d="M 237.5 185.351562 L 237.5 168.8125 L 254.058594 168.8125 L 254.058594 171.175781 L 242.230469 171.175781 L 242.230469 175.902344 L 251.691406 175.902344 L 251.691406 178.269531 L 242.234375 178.269531 L 242.234375 182.992188 L 254.058594 182.992188 L 254.058594 185.355469 Z M 237.5 185.351562 " fill-opacity="1" fill-rule="nonzero"/><path fill="#53364b" d="M 256.425781 185.351562 L 256.425781 168.8125 L 270.617188 168.8125 L 270.617188 171.175781 L 272.984375 171.175781 L 272.984375 178.269531 L 268.253906 178.269531 L 268.253906 180.628906 L 270.617188 180.628906 L 270.617188 182.992188 L 272.984375 182.992188 L 272.984375 185.355469 L 265.886719 185.355469 L 265.886719 182.992188 L 263.523438 182.992188 L 263.523438 180.628906 L 261.15625 180.628906 L 261.15625 185.355469 Z M 261.15625 178.265625 L 265.886719 178.265625 L 265.886719 175.902344 L 268.253906 175.902344 L 268.253906 171.175781 L 261.15625 171.175781 Z M 261.15625 178.265625 " fill-opacity="1" fill-rule="nonzero"/><path fill="#53364b" d="M 275.347656 185.351562 L 275.347656 168.8125 L 289.542969 168.8125 L 289.542969 171.175781 L 291.90625 171.175781 L 291.90625 178.269531 L 287.175781 178.269531 L 287.175781 180.628906 L 289.542969 180.628906 L 289.542969 182.992188 L 291.90625 182.992188 L 291.90625 185.355469 L 284.8125 185.355469 L 284.8125 182.992188 L 282.445312 182.992188 L 282.445312 180.628906 L 280.082031 180.628906 L 280.082031 185.355469 Z M 280.082031 178.265625 L 284.8125 178.265625 L 284.8125 175.902344 L 287.175781 175.902344 L 287.175781 171.175781 L 280.082031 171.175781 Z M 280.082031 178.265625 " fill-opacity="1" fill-rule="nonzero"/><path fill="#53364b" d="M 296.640625 185.351562 L 296.640625 182.988281 L 294.273438 182.988281 L 294.273438 171.175781 L 296.640625 171.175781 L 296.640625 168.8125 L 308.464844 168.8125 L 308.464844 171.175781 L 310.832031 171.175781 L 310.832031 182.988281 L 308.464844 182.988281 L 308.464844 185.351562 Z M 299.003906 182.988281 L 306.101562 182.988281 L 306.101562 171.175781 L 299.003906 171.175781 Z M 299.003906 182.988281 " fill-opacity="1" fill-rule="nonzero"/><path fill="#53364b" d="M 313.195312 185.351562 L 313.195312 168.8125 L 327.390625 168.8125 L 327.390625 171.175781 L 329.753906 171.175781 L 329.753906 178.269531 L 325.023438 178.269531 L 325.023438 180.628906 L 327.390625 180.628906 L 327.390625 182.992188 L 329.753906 182.992188 L 329.753906 185.355469 L 322.660156 185.355469 L 322.660156 182.992188 L 320.292969 182.992188 L 320.292969 180.628906 L 317.929688 180.628906 L 317.929688 185.355469 Z M 317.929688 178.265625 L 322.660156 178.265625 L 322.660156 175.902344 L 325.023438 175.902344 L 325.023438 171.175781 L 317.929688 171.175781 Z M 317.929688 178.265625 " fill-opacity="1" fill-rule="nonzero"/><path fill="#53364b" d="M 336.851562 180.625 L 336.851562 168.8125 L 343.949219 168.8125 L 343.949219 175.902344 L 341.582031 175.902344 L 341.582031 180.625 Z M 336.851562 185.351562 L 336.851562 182.988281 L 341.582031 182.988281 L 341.582031 185.351562 Z M 336.851562 185.351562 " fill-opacity="1" fill-rule="nonzero"/><path fill="#53364b" d="M 237.226562 240.503906 L 237.226562 233.761719 L 243.007812 233.761719 L 243.007812 234.726562 L 243.972656 234.726562 L 243.972656 237.613281 L 243.007812 237.613281 L 243.007812 238.578125 L 239.152344 238.578125 L 239.152344 240.503906 Z M 239.152344 237.613281 L 242.046875 237.613281 L 242.046875 234.726562 L 239.152344 234.726562 Z M 239.152344 237.613281 " fill-opacity="1" fill-rule="nonzero"/><path fill="#53364b" d="M 244.9375 240.503906 L 244.9375 235.6875 L 245.902344 235.6875 L 245.902344 234.726562 L 246.863281 234.726562 L 246.863281 233.761719 L 249.757812 233.761719 L 249.757812 234.726562 L 250.722656 234.726562 L 250.722656 235.6875 L 251.683594 235.6875 L 251.683594 240.503906 L 249.757812 240.503906 L 249.757812 238.578125 L 246.863281 238.578125 L 246.863281 240.503906 Z M 246.863281 237.613281 L 249.757812 237.613281 L 249.757812 235.6875 L 248.792969 235.6875 L 248.792969 234.726562 L 247.828125 234.726562 L 247.828125 235.6875 L 246.863281 235.6875 Z M 246.863281 237.613281 " fill-opacity="1" fill-rule="nonzero"/><path fill="#53364b" d="M 254.578125 240.503906 L 254.578125 239.539062 L 253.613281 239.539062 L 253.613281 238.578125 L 252.648438 238.578125 L 252.648438 235.6875 L 253.613281 235.6875 L 253.613281 234.726562 L 254.578125 234.726562 L 254.578125 233.761719 L 259.398438 233.761719 L 259.398438 234.726562 L 255.539062 234.726562 L 255.539062 235.6875 L 254.578125 235.6875 L 254.578125 238.578125 L 255.539062 238.578125 L 255.539062 239.539062 L 257.46875 239.539062 L 257.46875 237.613281 L 256.503906 237.613281 L 256.503906 236.652344 L 259.394531 236.652344 L 259.394531 240.503906 Z M 254.578125 240.503906 " fill-opacity="1" fill-rule="nonzero"/><path fill="#53364b" d="M 260.359375 240.503906 L 260.359375 233.761719 L 267.105469 233.761719 L 267.105469 234.726562 L 262.289062 234.726562 L 262.289062 236.652344 L 266.144531 236.652344 L 266.144531 237.613281 L 262.289062 237.613281 L 262.289062 239.539062 L 267.109375 239.539062 L 267.109375 240.503906 Z M 260.359375 240.503906 " fill-opacity="1" fill-rule="nonzero"/><path fill="#53364b" d="M 275.78125 240.503906 L 275.78125 233.761719 L 277.707031 233.761719 L 277.707031 234.726562 L 278.679688 234.726562 L 278.679688 235.6875 L 279.644531 235.6875 L 279.644531 236.652344 L 280.605469 236.652344 L 280.605469 233.761719 L 282.535156 233.761719 L 282.535156 240.503906 L 280.605469 240.503906 L 280.605469 238.578125 L 279.644531 238.578125 L 279.644531 237.613281 L 278.679688 237.613281 L 278.679688 236.652344 L 277.714844 236.652344 L 277.714844 240.503906 Z M 275.78125 240.503906 " fill-opacity="1" fill-rule="nonzero"/><path fill="#53364b" d="M 284.460938 240.503906 L 284.460938 239.539062 L 283.496094 239.539062 L 283.496094 234.726562 L 284.460938 234.726562 L 284.460938 233.761719 L 289.277344 233.761719 L 289.277344 234.726562 L 290.242188 234.726562 L 290.242188 239.539062 L 289.277344 239.539062 L 289.277344 240.503906 Z M 285.421875 239.539062 L 288.3125 239.539062 L 288.3125 234.726562 L 285.421875 234.726562 Z M 285.421875 239.539062 " fill-opacity="1" fill-rule="nonzero"/><path fill="#53364b" d="M 294.097656 240.503906 L 294.097656 234.726562 L 292.171875 234.726562 L 292.171875 233.761719 L 297.953125 233.761719 L 297.953125 234.726562 L 296.027344 234.726562 L 296.027344 240.503906 Z M 294.097656 240.503906 " fill-opacity="1" fill-rule="nonzero"/><path fill="#53364b" d="M 306.628906 240.503906 L 306.628906 233.761719 L 313.378906 233.761719 L 313.378906 234.726562 L 308.558594 234.726562 L 308.558594 236.652344 L 312.414062 236.652344 L 312.414062 237.613281 L 308.558594 237.613281 L 308.558594 240.503906 Z M 306.628906 240.503906 " fill-opacity="1" fill-rule="nonzero"/><path fill="#53364b" d="M 315.304688 240.503906 L 315.304688 239.539062 L 314.339844 239.539062 L 314.339844 234.726562 L 315.304688 234.726562 L 315.304688 233.761719 L 320.125 233.761719 L 320.125 234.726562 L 321.089844 234.726562 L 321.089844 239.539062 L 320.125 239.539062 L 320.125 240.503906 Z M 316.269531 239.539062 L 319.160156 239.539062 L 319.160156 234.726562 L 316.269531 234.726562 Z M 316.269531 239.539062 " fill-opacity="1" fill-rule="nonzero"/><path fill="#53364b" d="M 323.015625 240.503906 L 323.015625 239.539062 L 322.054688 239.539062 L 322.054688 233.761719 L 323.980469 233.761719 L 323.980469 239.539062 L 326.871094 239.539062 L 326.871094 233.761719 L 328.800781 233.761719 L 328.800781 239.539062 L 327.835938 239.539062 L 327.835938 240.503906 Z M 323.015625 240.503906 " fill-opacity="1" fill-rule="nonzero"/><path fill="#53364b" d="M 329.765625 240.503906 L 329.765625 233.761719 L 331.691406 233.761719 L 331.691406 234.726562 L 332.65625 234.726562 L 332.65625 235.6875 L 333.621094 235.6875 L 333.621094 236.652344 L 334.585938 236.652344 L 334.585938 233.761719 L 336.511719 233.761719 L 336.511719 240.503906 L 334.585938 240.503906 L 334.585938 238.578125 L 333.621094 238.578125 L 333.621094 237.613281 L 332.65625 237.613281 L 332.65625 236.652344 L 331.691406 236.652344 L 331.691406 240.503906 Z M 329.765625 240.503906 " fill-opacity="1" fill-rule="nonzero"/><path fill="#53364b" d="M 337.476562 240.503906 L 337.476562 233.761719 L 342.296875 233.761719 L 342.296875 234.726562 L 343.261719 234.726562 L 343.261719 235.6875 L 344.222656 235.6875 L 344.222656 238.578125 L 343.261719 238.578125 L 343.261719 239.539062 L 342.296875 239.539062 L 342.296875 240.503906 Z M 339.402344 239.539062 L 341.332031 239.539062 L 341.332031 238.578125 L 342.296875 238.578125 L 342.296875 235.6875 L 341.332031 235.6875 L 341.332031 234.726562 L 339.402344 234.726562 Z M 339.402344 239.539062 " fill-opacity="1" fill-rule="nonzero"/><path fill="#53364b" d="M 255.835938 225.234375 L 255.835938 215.941406 L 237.226562 215.941406 L 237.226562 206.648438 L 241.878906 206.648438 L 241.878906 202 L 246.53125 202 L 246.53125 197.351562 L 251.1875 197.351562 L 251.1875 192.707031 L 265.140625 192.707031 L 265.140625 211.292969 L 269.792969 211.292969 L 269.792969 215.941406 L 265.140625 215.941406 L 265.140625 225.234375 Z M 246.53125 211.292969 L 255.835938 211.292969 L 255.835938 202 L 251.1875 202 L 251.1875 206.648438 L 246.535156 206.648438 Z M 246.53125 211.292969 " fill-opacity="1" fill-rule="nonzero"/><path fill="#53364b" d="M 283.746094 225.234375 L 283.746094 220.585938 L 279.09375 220.585938 L 279.09375 215.941406 L 274.441406 215.941406 L 274.441406 202 L 279.09375 202 L 279.09375 197.351562 L 283.746094 197.351562 L 283.746094 192.707031 L 297.703125 192.707031 L 297.703125 197.351562 L 302.355469 197.351562 L 302.355469 202 L 307.007812 202 L 307.007812 215.941406 L 302.355469 215.941406 L 302.355469 220.585938 L 297.703125 220.585938 L 297.703125 225.234375 Z M 288.398438 220.585938 L 297.703125 220.585938 L 297.703125 202 L 293.050781 202 L 293.050781 197.351562 L 283.746094 197.351562 L 283.746094 215.941406 L 288.398438 215.941406 Z M 288.398438 220.585938 " fill-opacity="1" fill-rule="nonzero"/><path fill="#53364b" d="M 330.265625 225.234375 L 330.265625 215.941406 L 311.660156 215.941406 L 311.660156 206.648438 L 316.3125 206.648438 L 316.3125 202 L 320.960938 202 L 320.960938 197.351562 L 325.613281 197.351562 L 325.613281 192.707031 L 339.570312 192.707031 L 339.570312 211.292969 L 344.222656 211.292969 L 344.222656 215.941406 L 339.570312 215.941406 L 339.570312 225.234375 Z M 320.964844 211.292969 L 330.265625 211.292969 L 330.265625 202 L 325.613281 202 L 325.613281 206.648438 L 320.964844 206.648438 Z M 320.964844 211.292969 " fill-opacity="1" fill-rule="nonzero"/></svg>